<svg width="304" height="556" viewBox="0 0 304 556" fill="none" xmlns="http://www.w3.org/2000/svg">
<path d="M304 0.416992H127.477C114.049 0.416992 102.523 9.97828 100.043 23.1758L6.67944 519.959C3.20901 538.425 17.374 555.5 36.1633 555.5H304V0.416992Z" fill="#323259"/>
<mask id="mask0_0_175" style="mask-type:alpha" maskUnits="userSpaceOnUse" x="6" y="0" width="298" height="556">
<path d="M304 0.416992H127.477C114.049 0.416992 102.523 9.97828 100.043 23.1758L6.67944 519.959C3.20901 538.425 17.374 555.5 36.1633 555.5H304V0.416992Z" fill="#323259"/>
</mask>
<g mask="url(#mask0_0_175)">
<g opacity="0.3">
<path d="M367.851 22.6221C350.31 -1.48535 306.539 -1.77538 274.99 22.4599C243.441 46.6952 222.868 96.2181 247.881 114.597C272.894 132.976 307.848 137.106 340.742 114.759C373.636 92.4121 385.391 46.7295 367.851 22.6221Z" stroke="#8D50EF" stroke-width="0.181547" stroke-linecap="round"/>
<path d="M359.5 29.3139C344.547 8.80536 307.3 8.54044 280.442 29.1758C253.585 49.8112 235.418 92.469 257.363 107.617C279.309 122.765 308.305 126.623 336.42 107.755C364.536 88.8865 374.453 49.8224 359.5 29.3139Z" stroke="#8D50EF" stroke-width="0.181547" stroke-linecap="round"/>
<path d="M351.007 36.0412C338.638 19.1342 307.919 18.8914 285.754 35.9273C263.589 52.9632 247.718 88.8386 266.704 100.672C285.691 112.506 308.601 116.15 331.958 100.786C355.314 85.4225 363.376 52.9483 351.007 36.0412Z" stroke="#8D50EF" stroke-width="0.181547" stroke-linecap="round"/>
<path d="M342.42 42.7937C332.633 29.4898 308.444 29.267 290.97 42.7038C273.497 56.1406 259.848 85.2901 275.951 93.7527C292.053 102.215 308.791 105.684 327.4 93.8425C346.01 82.0015 352.208 56.0975 342.42 42.7937Z" stroke="#8D50EF" stroke-width="0.181547" stroke-linecap="round"/>
<path d="M333.767 49.5619C326.56 39.8625 308.902 39.6583 296.121 49.4962C283.34 59.334 271.86 81.7984 285.131 86.849C298.402 91.8996 308.905 95.2203 322.777 86.9148C336.65 78.6093 340.975 59.2614 333.767 49.5619Z" stroke="#8D50EF" stroke-width="0.181547" stroke-linecap="round"/>
<path d="M325.068 56.3426C320.439 50.2486 309.314 50.0619 301.225 56.301C293.136 62.54 283.785 78.3498 294.265 79.9578C304.745 81.5657 308.965 84.7598 318.107 79.9994C327.249 75.239 329.696 62.4366 325.068 56.3426Z" stroke="#8D50EF" stroke-width="0.181547" stroke-linecap="round"/>
</g>
<g opacity="0.3">
<path d="M92.5952 311.29C121.045 317.71 154.421 288.33 163.117 248.617C171.813 208.904 156.295 157.437 125.779 160.414C95.2623 163.391 66.1597 183.896 55.2572 223.087C44.3547 262.277 64.1454 304.87 92.5952 311.29Z" stroke="#8D50EF" stroke-width="0.181547" stroke-linecap="round"/>
<path d="M94.723 300.568C118.949 306.008 147.362 281.021 154.762 247.211C162.162 213.401 149.134 168.766 122.974 172.119C96.8136 175.473 72.4003 192.154 62.9352 225.476C53.4702 258.798 70.4967 295.127 94.723 300.568Z" stroke="#8D50EF" stroke-width="0.181547" stroke-linecap="round"/>
<path d="M96.9359 289.723C116.94 294.18 140.388 273.591 146.492 245.683C152.596 217.775 142.088 179.837 120.254 183.702C98.42 187.568 78.7566 200.298 70.6984 227.743C62.6403 255.188 76.9322 285.267 96.9359 289.723Z" stroke="#8D50EF" stroke-width="0.181547" stroke-linecap="round"/>
<path d="M99.2048 278.796C114.987 282.266 133.47 266.077 138.278 244.072C143.085 222.066 135.119 190.731 117.59 195.203C100.062 199.674 85.1897 208.363 78.5175 229.927C71.8454 251.491 83.423 275.326 99.2048 278.796Z" stroke="#8D50EF" stroke-width="0.181547" stroke-linecap="round"/>
<path d="M101.514 267.812C113.074 270.294 126.593 258.507 130.104 242.404C133.614 226.301 128.204 201.502 114.967 206.646C101.729 211.79 91.6778 216.375 86.3767 232.054C81.0755 247.734 89.9534 265.33 101.514 267.812Z" stroke="#8D50EF" stroke-width="0.181547" stroke-linecap="round"/>
<path d="M103.85 256.787C111.189 258.278 119.744 250.896 121.957 240.695C124.171 230.494 121.328 212.181 112.37 218.048C103.413 223.916 98.2048 224.348 94.2634 234.14C90.322 243.932 96.511 255.295 103.85 256.787Z" stroke="#8D50EF" stroke-width="0.181547" stroke-linecap="round"/>
</g>
<g opacity="0.3">
<path d="M246.311 307.578C274.761 313.998 308.137 284.618 316.833 244.905C325.529 205.192 310.011 153.725 279.495 156.702C248.978 159.679 219.876 180.184 208.973 219.375C198.071 258.565 217.861 301.158 246.311 307.578Z" stroke="#8D50EF" stroke-width="0.181547" stroke-linecap="round"/>
<path d="M248.439 296.856C272.665 302.296 301.077 277.309 308.478 243.499C315.878 209.689 302.85 165.054 276.69 168.407C250.529 171.76 226.116 188.442 216.651 221.764C207.186 255.086 224.213 291.415 248.439 296.856Z" stroke="#8D50EF" stroke-width="0.181547" stroke-linecap="round"/>
<path d="M250.652 286.011C270.655 290.468 294.104 269.879 300.208 241.971C306.311 214.063 295.804 176.125 273.97 179.99C252.136 183.856 232.472 196.585 224.414 224.031C216.356 251.476 230.648 281.554 250.652 286.011Z" stroke="#8D50EF" stroke-width="0.181547" stroke-linecap="round"/>
<path d="M252.921 275.084C268.702 278.554 287.186 262.365 291.993 240.36C296.801 218.354 288.835 187.019 271.306 191.49C253.778 195.962 238.906 204.65 232.233 226.215C225.561 247.779 237.139 271.614 252.921 275.084Z" stroke="#8D50EF" stroke-width="0.181547" stroke-linecap="round"/>
<path d="M255.23 264.1C266.79 266.582 280.309 254.795 283.819 238.692C287.33 222.589 281.92 197.79 268.682 202.934C255.445 208.078 245.394 212.662 240.093 228.342C234.791 244.021 243.669 261.618 255.23 264.1Z" stroke="#8D50EF" stroke-width="0.181547" stroke-linecap="round"/>
<path d="M257.566 253.075C264.905 254.566 273.46 247.184 275.673 236.983C277.887 226.782 275.044 208.469 266.086 214.336C257.129 220.204 251.921 220.636 247.979 230.428C244.038 240.22 250.227 251.583 257.566 253.075Z" stroke="#8D50EF" stroke-width="0.181547" stroke-linecap="round"/>
</g>
<g opacity="0.3">
<path d="M69.1618 13.1789C57.5021 40.8549 78.7109 80.5783 114.536 97.2289C150.362 113.879 202.056 108.212 205.24 76.5863C208.424 44.9609 194.764 11.3287 159.866 -7.46372C124.967 -26.2561 80.8215 -14.4972 69.1618 13.1789Z" stroke="#8D50EF" stroke-width="0.181547" stroke-linecap="round"/>
<path d="M78.8776 17.4507C68.9738 41.0234 87.0059 74.8343 117.507 89.0068C148.009 103.179 192.756 98.701 194.728 71.4327C196.701 44.1643 185.732 16.0534 156.098 -0.123372C126.465 -16.3001 88.7814 -6.12188 78.8776 17.4507Z" stroke="#8D50EF" stroke-width="0.181547" stroke-linecap="round"/>
<path d="M88.6924 21.8329C80.5483 41.3039 95.3997 69.2012 120.577 80.8951C145.755 92.589 183.677 89.358 184.315 66.3895C184.953 43.4209 176.786 20.9181 152.43 7.32734C128.074 -6.26339 96.8365 2.36199 88.6924 21.8329Z" stroke="#8D50EF" stroke-width="0.181547" stroke-linecap="round"/>
<path d="M98.5745 26.2886C92.1927 41.6591 103.861 63.6418 123.714 72.8568C143.568 82.0718 174.75 80.1278 173.969 61.4197C173.188 42.7116 167.899 25.8765 148.829 14.8515C129.759 3.82646 104.956 10.9181 98.5745 26.2886Z" stroke="#8D50EF" stroke-width="0.181547" stroke-linecap="round"/>
<path d="M108.502 30.7961C103.885 42.067 112.367 58.1347 126.897 64.8704C141.427 71.6062 165.93 70.9776 163.669 56.5018C161.409 42.026 159.052 30.9014 145.274 22.4275C131.497 13.9536 113.12 19.5252 108.502 30.7961Z" stroke="#8D50EF" stroke-width="0.181547" stroke-linecap="round"/>
<path d="M118.464 35.3398C115.611 42.5118 120.907 52.6637 130.114 56.9202C139.32 61.1766 157.188 61.8847 153.403 51.62C149.617 41.3554 150.233 35.9733 141.752 30.0396C133.272 24.106 121.316 28.1678 118.464 35.3398Z" stroke="#8D50EF" stroke-width="0.181547" stroke-linecap="round"/>
</g>
</g>
</svg>
