<svg width="773" height="62" viewBox="0 0 773 62" fill="none" xmlns="http://www.w3.org/2000/svg">
<g opacity="0.2">
<path d="M771.989 181.97C770.313 384.046 591.243 566.203 390.414 565.913C189.586 565.623 -45.6344 384.046 8.83996 181.97C63.3143 -20.1047 189.586 -184.812 390.414 -201.972C591.243 -219.132 773.664 -20.1047 771.989 181.97Z" stroke="#8D50EF" stroke-width="0.89888" stroke-linecap="round"/>
<path d="M748.491 175.138C747.163 358.375 584.594 523.519 402.487 523.289C220.38 523.059 13.3134 358.375 56.4833 175.138C99.6532 -8.10003 220.38 -159.415 402.487 -173.014C584.594 -186.613 749.819 -8.10003 748.491 175.138Z" stroke="#8D50EF" stroke-width="0.89888" stroke-linecap="round"/>
<path d="M718.956 171.721C717.812 336.121 571.909 484.279 408.523 484.082C245.137 483.884 60.9049 336.121 98.0894 171.721C135.274 7.32124 245.137 -128.925 408.523 -140.639C571.909 -152.352 720.1 7.32124 718.956 171.721Z" stroke="#8D50EF" stroke-width="0.89888" stroke-linecap="round"/>
<path d="M687.008 169.671C685.98 315.234 556.809 446.418 412.145 446.24C267.48 446.062 103.881 315.234 137.282 169.671C170.683 24.1087 267.48 -96.3761 412.145 -106.898C556.809 -117.419 688.035 24.1087 687.008 169.671Z" stroke="#8D50EF" stroke-width="0.89888" stroke-linecap="round"/>
<path d="M653.852 168.305C652.906 295.03 540.503 409.246 414.56 409.082C288.617 408.919 144.513 295.03 175.268 168.305C206.022 41.5797 288.617 -62.7848 414.56 -72.4728C540.503 -82.1609 654.798 41.5797 653.852 168.305Z" stroke="#8D50EF" stroke-width="0.89888" stroke-linecap="round"/>
<path d="M620.006 167.328C619.121 275.216 523.506 372.468 416.284 372.315C309.062 372.162 183.783 275.216 212.563 167.328C241.342 59.4409 309.062 -28.592 416.284 -37.6579C523.506 -46.7238 620.892 59.4409 620.006 167.328Z" stroke="#8D50EF" stroke-width="0.89888" stroke-linecap="round"/>
<path d="M585.729 166.596C584.891 255.646 506.079 335.936 417.578 335.792C329.077 335.647 222.19 255.646 249.427 166.596C276.664 77.5464 329.077 5.98127 417.578 -2.59868C506.079 -11.1786 586.567 77.5464 585.729 166.596Z" stroke="#8D50EF" stroke-width="0.89888" stroke-linecap="round"/>
<path d="M551.163 166.027C550.364 236.24 488.362 299.569 418.583 299.431C348.803 299.293 260.011 236.24 286.002 166.027C311.993 95.8146 348.803 40.8106 418.583 32.6233C488.362 24.4359 551.963 95.8146 551.163 166.027Z" stroke="#8D50EF" stroke-width="0.89888" stroke-linecap="round"/>
</g>
</svg>
