<svg width="248" height="295" viewBox="0 0 248 295" fill="none" xmlns="http://www.w3.org/2000/svg">
<path d="M169.375 18.6863C166.353 8.06622 156.652 0.740234 145.61 0.740234H24.7083C11.0623 0.740234 0 11.8025 0 25.4486V270.292C0 283.938 11.0623 295 24.7083 295H215.28C231.685 295 243.535 279.308 239.045 263.529L169.375 18.6863Z" fill="#EAE4FF"/>
<mask id="mask0_0_57" style="mask-type:alpha" maskUnits="userSpaceOnUse" x="0" y="0" width="241" height="295">
<path d="M169.375 18.6863C166.353 8.06622 156.652 0.740234 145.61 0.740234H24.7083C11.0623 0.740234 0 11.8025 0 25.4486V270.292C0 283.938 11.0623 295 24.7083 295H215.28C231.685 295 243.535 279.308 239.045 263.529L169.375 18.6863Z" fill="#EAE4FF"/>
</mask>
<g mask="url(#mask0_0_57)">
<g opacity="0.3">
<path d="M-76.4061 22.5985C-55.4168 -1.13258 -3.03779 -1.41808 34.7144 22.4388C72.4666 46.2957 97.0849 95.0455 67.1539 113.137C37.2229 131.229 -4.60473 135.295 -43.9666 113.297C-83.3285 91.2988 -97.3955 46.3295 -76.4061 22.5985Z" fill="#EAE4FF" stroke="#8D50EF" stroke-width="0.233509" stroke-linecap="round"/>
<path d="M-66.4132 29.1859C-48.5199 8.99755 -3.94872 8.73676 28.1894 29.05C60.3276 49.3632 82.0676 91.355 55.8068 106.266C29.5461 121.177 -5.15134 124.976 -38.7958 106.402C-72.4402 87.8284 -84.3065 49.3742 -66.4132 29.1859Z" fill="#EAE4FF" stroke="#8D50EF" stroke-width="0.233509" stroke-linecap="round"/>
<path d="M-56.2507 35.8082C-41.4495 19.165 -4.68966 18.926 21.834 35.696C48.3577 52.4659 67.3495 87.7811 44.6294 99.43C21.9093 111.079 -5.50607 114.666 -33.4553 99.5422C-61.4046 84.4184 -71.0519 52.4513 -56.2507 35.8082Z" fill="#EAE4FF" stroke="#8D50EF" stroke-width="0.233509" stroke-linecap="round"/>
<path d="M-45.9751 42.4551C-34.2633 29.3589 -5.31733 29.1397 15.5917 42.3667C36.5006 55.5937 52.8333 84.288 33.5649 92.6185C14.2965 100.949 -5.73257 104.363 -28.0019 92.707C-50.2712 81.0508 -57.687 55.5513 -45.9751 42.4551Z" fill="#EAE4FF" stroke="#8D50EF" stroke-width="0.233509" stroke-linecap="round"/>
<path d="M-35.6209 49.1177C-26.9964 39.5697 -5.86613 39.3687 9.42797 49.053C24.7221 58.7372 38.4598 80.8509 22.5791 85.8226C6.69844 90.7943 -5.8694 94.0632 -22.4698 85.8873C-39.0701 77.7115 -44.2454 58.6657 -35.6209 49.1177Z" fill="#EAE4FF" stroke="#8D50EF" stroke-width="0.233509" stroke-linecap="round"/>
<path d="M-25.2103 55.7925C-19.6718 49.7936 -6.35843 49.6099 3.32063 55.7515C12.9997 61.8932 24.1904 77.4561 11.6497 79.039C-0.890977 80.6218 -5.94168 83.766 -16.8813 79.08C-27.8208 74.3939 -30.7489 61.7914 -25.2103 55.7925Z" fill="#EAE4FF" stroke="#8D50EF" stroke-width="0.233509" stroke-linecap="round"/>
</g>
<g opacity="0.3">
<path d="M252.975 306.759C218.931 313.079 178.992 284.158 168.586 245.065C158.18 205.972 176.749 155.308 213.266 158.239C249.783 161.17 284.609 181.355 297.655 219.933C310.701 258.512 287.019 300.439 252.975 306.759Z" fill="#EAE4FF" stroke="#8D50EF" stroke-width="0.233509" stroke-linecap="round"/>
<path d="M250.429 296.205C221.438 301.561 187.439 276.964 178.584 243.681C169.729 210.399 185.318 166.461 216.622 169.762C247.927 173.063 277.141 189.484 288.467 222.286C299.793 255.087 279.419 290.849 250.429 296.205Z" fill="#EAE4FF" stroke="#8D50EF" stroke-width="0.233509" stroke-linecap="round"/>
<path d="M247.781 285.53C223.843 289.917 195.784 269.649 188.48 242.177C181.176 214.705 193.749 177.359 219.877 181.164C246.005 184.969 269.535 197.5 279.177 224.517C288.82 251.534 271.718 281.142 247.781 285.53Z" fill="#EAE4FF" stroke="#8D50EF" stroke-width="0.233509" stroke-linecap="round"/>
<path d="M245.065 274.773C226.18 278.189 204.062 262.253 198.309 240.591C192.557 218.929 202.089 188.083 223.065 192.485C244.04 196.886 261.836 205.439 269.821 226.667C277.805 247.894 263.95 271.357 245.065 274.773Z" fill="#EAE4FF" stroke="#8D50EF" stroke-width="0.233509" stroke-linecap="round"/>
<path d="M242.303 263.96C228.469 266.403 212.292 254.801 208.091 238.949C203.89 223.097 210.364 198.685 226.204 203.749C242.045 208.814 254.073 213.326 260.416 228.761C266.76 244.195 256.136 261.518 242.303 263.96Z" fill="#EAE4FF" stroke="#8D50EF" stroke-width="0.233509" stroke-linecap="round"/>
<path d="M239.507 253.107C230.724 254.575 220.488 247.309 217.839 237.267C215.191 227.225 218.592 209.198 229.311 214.974C240.03 220.75 246.262 221.175 250.978 230.814C255.695 240.453 248.289 251.639 239.507 253.107Z" fill="#EAE4FF" stroke="#8D50EF" stroke-width="0.233509" stroke-linecap="round"/>
</g>
<g opacity="0.3">
<path d="M69.0328 303.105C34.9888 309.425 -4.95022 280.504 -15.356 241.411C-25.7619 202.318 -7.19328 151.654 29.324 154.585C65.8412 157.516 100.666 177.701 113.713 216.279C126.759 254.858 103.077 296.785 69.0328 303.105Z" fill="#EAE4FF" stroke="#8D50EF" stroke-width="0.233509" stroke-linecap="round"/>
<path d="M66.4866 292.551C37.4966 297.906 3.49735 273.31 -5.35795 240.027C-14.2133 206.745 1.37597 162.807 32.6804 166.108C63.9849 169.409 93.1987 185.83 104.525 218.631C115.851 251.433 95.4766 287.195 66.4866 292.551Z" fill="#EAE4FF" stroke="#8D50EF" stroke-width="0.233509" stroke-linecap="round"/>
<path d="M63.8385 281.876C39.9014 286.263 11.8425 265.995 4.5383 238.523C-2.76587 211.05 9.80752 173.705 35.935 177.51C62.0626 181.315 85.5926 193.846 95.2353 220.863C104.878 247.88 87.7757 277.488 63.8385 281.876Z" fill="#EAE4FF" stroke="#8D50EF" stroke-width="0.233509" stroke-linecap="round"/>
<path d="M61.1234 271.119C42.2384 274.535 20.1201 258.599 14.3675 236.937C8.61486 215.275 18.1474 184.429 39.1226 188.83C60.0978 193.232 77.8945 201.785 85.8786 223.012C93.8627 244.24 80.0085 267.703 61.1234 271.119Z" fill="#EAE4FF" stroke="#8D50EF" stroke-width="0.233509" stroke-linecap="round"/>
<path d="M58.3605 260.306C44.527 262.749 28.3495 251.147 24.1488 235.295C19.948 219.443 26.4217 195.031 42.2623 200.095C58.1029 205.159 70.1304 209.672 76.474 225.107C82.8175 240.541 72.194 257.863 58.3605 260.306Z" fill="#EAE4FF" stroke="#8D50EF" stroke-width="0.233509" stroke-linecap="round"/>
<path d="M55.5645 249.453C46.7822 250.921 36.5458 243.654 33.8972 233.613C31.2485 223.571 34.6499 205.544 45.369 211.319C56.0882 217.095 62.32 217.521 67.0364 227.16C71.7529 236.799 64.3469 247.985 55.5645 249.453Z" fill="#EAE4FF" stroke="#8D50EF" stroke-width="0.233509" stroke-linecap="round"/>
</g>
<g opacity="0.3">
<path d="M281.016 13.3028C294.968 40.5467 269.589 79.6499 226.719 96.0405C183.849 112.431 121.99 106.852 118.179 75.7202C114.369 44.5886 130.716 11.4815 172.476 -7.01752C214.237 -25.5165 267.063 -13.9411 281.016 13.3028Z" fill="#EAE4FF" stroke="#8D50EF" stroke-width="0.233509" stroke-linecap="round"/>
<path d="M269.39 17.5079C281.241 40.7125 259.663 73.9956 223.164 87.9468C186.665 101.898 133.119 97.4896 130.759 70.647C128.398 43.8044 141.524 16.1324 176.985 0.208173C212.445 -15.716 257.539 -5.69669 269.39 17.5079Z" fill="#EAE4FF" stroke="#8D50EF" stroke-width="0.233509" stroke-linecap="round"/>
<path d="M257.645 21.8219C267.391 40.9888 249.619 68.4506 219.49 79.9619C189.362 91.4732 143.983 88.2927 143.219 65.6828C142.456 43.0728 152.228 20.9213 181.374 7.54276C210.52 -5.83577 247.899 2.65493 257.645 21.8219Z" fill="#EAE4FF" stroke="#8D50EF" stroke-width="0.233509" stroke-linecap="round"/>
<path d="M245.82 26.2078C253.456 41.3383 239.494 62.9779 215.736 72.049C191.979 81.1201 154.665 79.2064 155.599 60.7904C156.534 42.3744 162.863 25.8021 185.683 14.9493C208.503 4.0964 238.183 11.0773 245.82 26.2078Z" fill="#EAE4FF" stroke="#8D50EF" stroke-width="0.233509" stroke-linecap="round"/>
<path d="M233.94 30.645C239.465 41.7399 229.315 57.5567 211.928 64.1873C194.54 70.8179 165.22 70.1991 167.925 55.9493C170.63 41.6995 173.451 30.7486 189.937 22.407C206.424 14.0654 228.414 19.55 233.94 30.645Z" fill="#EAE4FF" stroke="#8D50EF" stroke-width="0.233509" stroke-linecap="round"/>
<path d="M222.02 35.1176C225.433 42.1776 219.096 52.1711 208.079 56.3611C197.062 60.551 175.681 61.2481 180.21 51.1437C184.74 41.0393 184.004 35.7413 194.152 29.9002C204.3 24.0592 218.607 28.0576 222.02 35.1176Z" fill="#EAE4FF" stroke="#8D50EF" stroke-width="0.233509" stroke-linecap="round"/>
</g>
</g>
</svg>
