<svg width="328" height="583" viewBox="0 0 328 583" fill="none" xmlns="http://www.w3.org/2000/svg">
<path d="M0 0.416992H177.245C190.348 0.416992 201.687 9.53071 204.506 22.3271L328 583H0V0.416992Z" fill="#323259"/>
<mask id="mask0_0_136" style="mask-type:alpha" maskUnits="userSpaceOnUse" x="0" y="0" width="328" height="583">
<path d="M0 0.416992H177.245C190.348 0.416992 201.687 9.53071 204.506 22.3271L328 583H0V0.416992Z" fill="#323259"/>
</mask>
<g mask="url(#mask0_0_136)">
<g opacity="0.3">
<path d="M-63.8507 22.6221C-46.3104 -1.48535 -2.53858 -1.77538 29.01 22.4599C60.5586 46.6952 81.1315 96.2181 56.1189 114.597C31.1063 132.976 -3.84802 137.106 -36.7418 114.759C-69.6356 92.4121 -81.391 46.7295 -63.8507 22.6221Z" stroke="#8D50EF" stroke-width="0.181547" stroke-linecap="round"/>
<path d="M-55.4997 29.3139C-40.5467 8.80537 -3.29965 8.54045 23.5574 29.1758C50.4145 49.8112 68.5821 92.469 46.6366 107.617C24.6912 122.765 -4.30465 126.623 -32.4205 107.755C-60.5363 88.8865 -70.4527 49.8224 -55.4997 29.3139Z" stroke="#8D50EF" stroke-width="0.181547" stroke-linecap="round"/>
<path d="M-47.0073 36.0412C-34.6383 19.1342 -3.91907 18.8914 18.2461 35.9273C40.4113 52.9632 56.2823 88.8386 37.2956 100.672C18.309 112.506 -4.60132 116.15 -27.9578 100.786C-51.3143 85.4225 -59.3763 52.9483 -47.0073 36.0412Z" stroke="#8D50EF" stroke-width="0.181547" stroke-linecap="round"/>
<path d="M-38.4203 42.7936C-28.633 29.4898 -4.44355 29.267 13.0296 42.7038C30.5027 56.1406 44.1515 85.2901 28.0494 93.7527C11.9472 102.215 -4.79055 105.684 -23.4005 93.8425C-42.0104 82.0015 -48.2076 56.0975 -38.4203 42.7936Z" stroke="#8D50EF" stroke-width="0.181547" stroke-linecap="round"/>
<path d="M-29.7673 49.5617C-22.5601 39.8623 -4.90196 39.6581 7.87894 49.4959C20.6598 59.3338 32.1401 81.7982 18.869 86.8488C5.59794 91.8994 -4.9047 95.22 -18.7772 86.9145C-32.6497 78.609 -36.9746 59.2611 -29.7673 49.5617Z" stroke="#8D50EF" stroke-width="0.181547" stroke-linecap="round"/>
<path d="M-21.0677 56.3426C-16.4392 50.2486 -5.31362 50.0619 2.77494 56.301C10.8635 62.54 20.2153 78.3498 9.73534 79.9578C-0.744598 81.5657 -4.96534 84.7598 -14.1073 79.9994C-23.2492 75.239 -25.6961 62.4366 -21.0677 56.3426Z" stroke="#8D50EF" stroke-width="0.181547" stroke-linecap="round"/>
</g>
<g opacity="0.3">
<path d="M211.405 311.29C182.955 317.71 149.579 288.33 140.883 248.617C132.187 208.904 147.705 157.437 178.221 160.414C208.738 163.391 237.84 183.896 248.743 223.087C259.645 262.277 239.855 304.87 211.405 311.29Z" stroke="#8D50EF" stroke-width="0.181547" stroke-linecap="round"/>
<path d="M209.277 300.568C185.051 306.009 156.638 281.022 149.238 247.211C141.838 213.401 154.866 168.766 181.026 172.12C207.186 175.473 231.6 192.155 241.065 225.476C250.53 258.798 233.503 295.127 209.277 300.568Z" stroke="#8D50EF" stroke-width="0.181547" stroke-linecap="round"/>
<path d="M207.064 289.723C187.06 294.18 163.612 273.591 157.508 245.683C151.404 217.775 161.912 179.837 183.746 183.702C205.58 187.568 225.244 200.298 233.302 227.743C241.36 255.188 227.068 285.267 207.064 289.723Z" stroke="#8D50EF" stroke-width="0.181547" stroke-linecap="round"/>
<path d="M204.795 278.796C189.013 282.266 170.53 266.077 165.722 244.072C160.915 222.066 168.881 190.731 186.41 195.203C203.938 199.674 218.81 208.363 225.482 229.927C232.155 251.491 220.577 275.326 204.795 278.796Z" stroke="#8D50EF" stroke-width="0.181547" stroke-linecap="round"/>
<path d="M202.486 267.812C190.926 270.294 177.407 258.507 173.896 242.404C170.386 226.301 175.796 201.502 189.033 206.646C202.271 211.79 212.322 216.375 217.623 232.054C222.924 247.734 214.047 265.33 202.486 267.812Z" stroke="#8D50EF" stroke-width="0.181547" stroke-linecap="round"/>
<path d="M200.15 256.787C192.811 258.278 184.256 250.896 182.043 240.695C179.829 230.494 182.672 212.181 191.63 218.048C200.587 223.916 205.795 224.348 209.737 234.14C213.678 243.932 207.489 255.296 200.15 256.787Z" stroke="#8D50EF" stroke-width="0.181547" stroke-linecap="round"/>
</g>
<g opacity="0.3">
<path d="M57.6891 307.578C29.2393 313.998 -4.13671 284.618 -12.8326 244.905C-21.5285 205.192 -6.01118 153.725 24.5054 156.702C55.022 159.679 84.1245 180.184 95.027 219.375C105.93 258.565 86.1388 301.158 57.6891 307.578Z" stroke="#8D50EF" stroke-width="0.181547" stroke-linecap="round"/>
<path d="M55.5612 296.856C31.3349 302.297 2.92262 277.31 -4.47754 243.499C-11.8777 209.689 1.14983 165.054 27.3102 168.407C53.4706 171.761 77.8839 188.443 87.3489 221.764C96.814 255.086 79.7874 291.415 55.5612 296.856Z" stroke="#8D50EF" stroke-width="0.181547" stroke-linecap="round"/>
<path d="M53.3482 286.011C33.3445 290.468 9.89632 269.879 3.7924 241.971C-2.31152 214.063 8.19576 176.125 30.0299 179.99C51.864 183.856 71.5275 196.585 79.5856 224.031C87.6438 251.476 73.3518 281.554 53.3482 286.011Z" stroke="#8D50EF" stroke-width="0.181547" stroke-linecap="round"/>
<path d="M51.0793 275.084C35.2976 278.554 16.8138 262.365 12.0065 240.36C7.1992 218.354 15.1653 187.019 32.6938 191.49C50.2222 195.962 65.0945 204.65 71.7666 226.215C78.4387 247.779 66.8611 271.614 51.0793 275.084Z" stroke="#8D50EF" stroke-width="0.181547" stroke-linecap="round"/>
<path d="M48.7704 264.1C37.2101 266.582 23.691 254.795 20.1805 238.692C16.67 222.589 22.08 197.79 35.3175 202.934C48.5551 208.078 58.6063 212.662 63.9074 228.342C69.2085 244.021 60.3307 261.618 48.7704 264.1Z" stroke="#8D50EF" stroke-width="0.181547" stroke-linecap="round"/>
<path d="M46.4339 253.075C39.0947 254.566 30.5404 247.184 28.3269 236.983C26.1135 226.782 28.956 208.469 37.9137 214.336C46.8714 220.204 52.0792 220.636 56.0206 230.428C59.962 240.22 53.7731 251.583 46.4339 253.075Z" stroke="#8D50EF" stroke-width="0.181547" stroke-linecap="round"/>
</g>
<g opacity="0.3">
<path d="M234.838 13.1789C246.498 40.8549 225.289 80.5783 189.463 97.2289C153.638 113.879 101.944 108.212 98.7596 76.5863C95.5755 44.9609 109.236 11.3287 144.134 -7.46372C179.032 -26.2561 223.178 -14.4972 234.838 13.1789Z" stroke="#8D50EF" stroke-width="0.181547" stroke-linecap="round"/>
<path d="M225.122 17.4507C235.026 41.0234 216.994 74.8343 186.493 89.0068C155.991 103.179 111.244 98.701 109.272 71.4327C107.299 44.1643 118.268 16.0534 147.902 -0.123372C177.535 -16.3001 215.219 -6.12188 225.122 17.4507Z" stroke="#8D50EF" stroke-width="0.181547" stroke-linecap="round"/>
<path d="M215.308 21.8329C223.452 41.3039 208.6 69.2012 183.423 80.8951C158.245 92.589 120.323 89.358 119.685 66.3895C119.047 43.4209 127.214 20.9181 151.57 7.32735C175.926 -6.26338 207.164 2.36199 215.308 21.8329Z" stroke="#8D50EF" stroke-width="0.181547" stroke-linecap="round"/>
<path d="M205.426 26.2886C211.807 41.6591 200.139 63.6418 180.286 72.8568C160.432 82.0718 129.25 80.1278 130.031 61.4197C130.812 42.7116 136.101 25.8765 155.171 14.8515C174.241 3.82646 199.044 10.9181 205.426 26.2886Z" stroke="#8D50EF" stroke-width="0.181547" stroke-linecap="round"/>
<path d="M195.498 30.7961C200.115 42.067 191.633 58.1347 177.103 64.8704C162.573 71.6062 138.07 70.9776 140.331 56.5018C142.591 42.026 144.948 30.9014 158.726 22.4275C172.503 13.9536 190.88 19.5252 195.498 30.7961Z" stroke="#8D50EF" stroke-width="0.181547" stroke-linecap="round"/>
<path d="M185.537 35.3398C188.389 42.5118 183.093 52.6637 173.886 56.9202C164.68 61.1766 146.812 61.8847 150.598 51.62C154.383 41.3554 153.767 35.9733 162.248 30.0396C170.728 24.106 182.684 28.1678 185.537 35.3398Z" stroke="#8D50EF" stroke-width="0.181547" stroke-linecap="round"/>
</g>
</g>
</svg>
