<svg width="67" height="26" viewBox="0 0 67 26" fill="none" xmlns="http://www.w3.org/2000/svg">
<path d="M17.0618 0.2917C16.7492 0.447968 16.4471 0.604236 16.3846 0.625072C16.3221 0.645908 16.4055 0.92719 16.5617 1.25014L16.8534 1.84396L17.4472 1.5731C17.7806 1.42725 18.0827 1.2814 18.114 1.23973C18.1557 1.19806 18.0619 0.906355 17.9056 0.583401L17.6348 0L17.0618 0.2917Z" fill="white"/>
<path d="M28.2192 0.437533C27.0524 0.802158 26.4377 2.04188 26.4377 4.0317C26.4377 5.04223 26.3231 5.1985 25.4064 5.47978C24.0208 5.90692 23.7291 5.75065 23.2603 4.33382C23.104 3.85459 22.9582 3.42746 22.9269 3.38579C22.8956 3.31286 21.9685 3.58373 21.833 3.70874C21.7914 3.75042 21.9164 4.2088 22.1143 4.74011C22.6144 6.0736 22.5935 6.31321 21.8851 6.66742C21.1142 7.0633 20.6975 6.80285 20.0932 5.54229C19.864 5.05265 19.6557 4.65677 19.6349 4.65677C19.6036 4.65677 19.3536 4.76095 19.0723 4.88596L18.5514 5.12557L18.9994 6.06318C19.4682 7.02163 19.5619 7.51127 19.3327 7.80297C19.0827 8.09467 18.6868 8.30303 18.3326 8.30303C17.9159 8.30303 17.6138 8.01133 17.1033 7.10497C16.9158 6.76118 16.7074 6.41739 16.6658 6.34447C16.5928 6.24029 16.4574 6.28196 16.0303 6.54241C15.5302 6.85494 15.5094 6.89661 15.6344 7.09455C16.7387 8.79267 16.8324 9.08437 16.4366 9.58442C16.322 9.73027 16.0511 9.95947 15.8323 10.0845C15.624 10.2199 15.3114 10.4283 15.1552 10.5637C14.7697 10.8762 14.3426 10.8658 13.9571 10.5429C13.7904 10.4074 12.7695 9.18855 11.6964 7.84464L9.72746 5.38602L9.25865 5.77148C8.99821 5.97984 8.73776 6.1882 8.68567 6.22987C8.61274 6.29238 9.44617 7.29249 12.1652 10.3762C12.9674 11.293 13.8842 12.0014 14.3947 12.0951C14.9676 12.1993 15.5823 11.9805 16.4678 11.345C17.3013 10.7408 17.6138 10.3658 17.7388 9.79278C17.8013 9.50108 17.8326 9.46983 18.0409 9.55317C18.4472 9.70944 19.3952 9.52192 19.812 9.19896C20.1974 8.90726 20.4995 8.43846 20.4995 8.14676C20.4995 8.00091 20.562 7.99049 20.8433 8.06341C21.8955 8.33428 22.7915 8.01133 23.2707 7.19873C23.4165 6.9487 23.552 6.74035 23.5728 6.74035C23.5832 6.74035 23.7707 6.81327 23.9687 6.89661C24.5 7.11539 24.948 7.09455 25.9064 6.79243C26.5419 6.58408 26.8023 6.44864 27.0524 6.15694L27.3753 5.79232L28.1358 6.00068C29.959 6.51115 30.6049 6.35488 31.1779 5.22975C31.4696 4.66719 31.4904 4.54217 31.4904 3.52122C31.48 2.17732 31.2508 1.54183 30.5424 0.916755C29.8652 0.322937 29.1047 0.166668 28.2192 0.437533ZM29.7298 1.89603C30.0736 2.11481 30.3236 2.76072 30.3757 3.57331C30.4174 4.22964 30.3965 4.33382 30.1673 4.59426C29.8652 4.94847 29.4589 4.96931 28.3963 4.69844L27.6566 4.5005L27.7087 3.61498C27.7712 2.50027 27.9692 2.10439 28.5526 1.84395C29.0005 1.63559 29.3339 1.65642 29.7298 1.89603Z" fill="white"/>
<path d="M40.3563 0.770859C40.3146 0.989634 40.2625 1.29175 40.2313 1.4376C40.1792 1.69805 40.2104 1.71888 40.7313 1.8439C41.0334 1.90641 41.3564 1.98975 41.4502 2.01059C41.5752 2.04184 41.6377 1.96891 41.6793 1.71888C41.7106 1.53136 41.7731 1.22924 41.8044 1.05214L41.8773 0.729187L41.1897 0.552083C40.8147 0.458322 40.4917 0.385397 40.4709 0.385397C40.4396 0.385397 40.3875 0.562501 40.3563 0.770859Z" fill="white"/>
<path d="M36.3866 2.02108C35.9908 3.36499 36.0012 4.02131 36.3971 4.76098C36.9075 5.70901 37.1367 5.81319 40.6684 6.69871C43.7937 7.49046 44.3251 7.56339 45.0439 7.32378C45.221 7.26127 45.2835 7.29252 45.3356 7.50088C45.4606 8.01136 46.169 8.54267 47.8359 9.38652C49.1902 10.0741 49.5757 10.2199 50.0757 10.2616C51.1383 10.3345 52.003 9.82407 52.9719 8.53225C53.9095 7.28211 54.1491 6.79247 54.1491 6.06322C54.1491 5.27146 53.8887 4.70889 53.3261 4.22967C52.3572 3.39624 50.9404 3.41708 50.0028 4.28176C49.6903 4.56304 49.2944 5.33396 49.2006 5.83402C49.0235 6.7508 49.6173 7.81342 50.6591 8.48016C50.9196 8.63643 51.1071 8.81353 51.0967 8.87604C51.0758 8.92813 50.8675 8.99064 50.6383 9.01147C50.3257 9.03231 50.0549 8.94897 49.5027 8.65727C49.1069 8.44891 48.2943 8.02178 47.7004 7.71966C47.0962 7.40712 46.5545 7.105 46.4711 7.0425C46.2315 6.83414 46.3253 6.21948 46.7524 5.25062C46.9816 4.74015 47.1587 4.3026 47.1483 4.29218C46.9608 4.17758 46.0648 3.85463 46.0127 3.88588C45.9815 3.90672 45.8044 4.31301 45.6169 4.79224C45.0022 6.42784 45.221 6.39659 41.1268 5.37564C39.2099 4.89641 37.741 4.4797 37.5951 4.3651C37.1471 4.03173 37.1263 3.64627 37.4805 2.54198C37.6472 2.00025 37.793 1.51061 37.793 1.4481C37.793 1.36476 36.97 1.01055 36.7513 1.01055C36.7096 1.01055 36.5429 1.46893 36.3866 2.02108ZM52.451 5.25062C53.0552 5.69859 53.0344 6.32366 52.4093 7.23002C52.201 7.53214 52.0134 7.78216 51.9926 7.78216C51.9718 7.78216 51.628 7.52172 51.2321 7.20918C50.482 6.60495 50.2945 6.26116 50.4924 5.79235C50.8675 4.89641 51.6801 4.66722 52.451 5.25062Z" fill="white"/>
<path d="M42.8874 1.60434C42.8145 1.93772 42.7416 2.22942 42.7416 2.25025C42.7416 2.31276 43.7417 2.65655 43.95 2.66697C44.1376 2.67738 44.5334 1.56267 44.3876 1.42724C44.3147 1.3439 43.2625 1.01053 43.1062 1.01053C43.0645 1.01053 42.9708 1.28139 42.8874 1.60434Z" fill="white"/>
<path d="M19.0409 1.4063C18.6659 1.55215 18.3534 1.67716 18.3325 1.68758C18.2596 1.75008 18.8847 2.88563 18.9993 2.88563C19.0618 2.88563 19.3847 2.77104 19.7077 2.62519L20.2911 2.36474L20.0723 1.82301C19.9577 1.52089 19.8327 1.23961 19.791 1.20836C19.7494 1.1771 19.416 1.26045 19.0409 1.4063Z" fill="white"/>
<path d="M53.2532 1.86462C53.0865 2.16674 52.9406 2.44802 52.9198 2.47928C52.8886 2.54179 54.1491 3.40647 54.2741 3.40647C54.3054 3.40647 54.4929 3.15644 54.7013 2.8439L55.0763 2.28134L54.5867 1.97922C54.3158 1.81253 53.972 1.59376 53.8262 1.5L53.5553 1.32289L53.2532 1.86462Z" fill="white"/>
<path d="M16.4572 2.6356C16.0925 2.84396 15.8113 3.0419 15.8321 3.07315C15.8529 3.11482 15.9988 3.39611 16.1655 3.68781L16.4676 4.23995L17.051 3.90658C17.3739 3.72948 17.6761 3.55237 17.7177 3.5107C17.8011 3.43778 17.2802 2.26056 17.1656 2.26056C17.1343 2.26056 16.8218 2.42724 16.4572 2.6356Z" fill="white"/>
<path d="M57.1186 6.39667C53.4932 10.8764 53.2849 11.1681 53.1494 12.0327C53.0453 12.6891 53.3682 13.2204 54.5767 14.4393C55.7435 15.6061 56.2227 15.8978 56.9728 15.9082C57.6291 15.9082 58.1292 15.679 58.7647 15.0956C59.3272 14.5643 60.2961 13.4496 60.2961 13.3141C60.2961 13.2725 60.0773 13.0849 59.8065 12.8974L59.3168 12.5536L59.1085 12.8349C58.5667 13.585 57.6291 14.5643 57.4103 14.6164C57.2853 14.658 57.0457 14.6476 56.8895 14.606C56.5665 14.533 54.5142 12.5015 54.41 12.1578C54.3058 11.8452 54.7121 11.2201 55.8372 9.95958C56.3686 9.35534 57.2957 8.31356 57.8896 7.6364L58.973 6.4175L58.4626 5.95912C58.1813 5.70909 57.9312 5.50073 57.9 5.50073C57.8687 5.50073 57.5249 5.90703 57.1186 6.39667Z" fill="white"/>
<path d="M8.36286 11.1469C7.38358 11.6157 6.78976 12.6054 6.88352 13.6159C6.95645 14.4077 7.24815 14.9494 7.95656 15.5745C8.89417 16.4183 9.95679 16.6475 10.8944 16.2204C11.134 16.1058 11.6341 15.7099 11.9987 15.3349L12.655 14.6369L12.9884 15.0223C13.7281 15.8662 13.676 16.3871 12.7279 17.6268L12.0612 18.5019L12.5092 18.8561C12.7488 19.054 12.9988 19.2416 13.0613 19.2728C13.2176 19.3562 14.1969 18.1373 14.4677 17.5226C14.7803 16.8142 14.7178 15.9495 14.2698 15.0432C13.9989 14.491 13.6135 14.0326 12.4467 12.845C11.6341 12.022 10.8006 11.2615 10.6027 11.1573C10.4048 11.0635 9.93596 10.9594 9.56091 10.9385C8.99835 10.9073 8.78999 10.9385 8.36286 11.1469ZM10.0297 12.3658C10.2693 12.4804 10.7381 12.8242 11.0611 13.1263L11.6445 13.668L11.0715 14.3035C10.4464 15.0119 9.91512 15.3244 9.51924 15.2203C9.1442 15.1265 8.46704 14.5119 8.25868 14.0743C8.01907 13.5534 8.12325 13.1159 8.60247 12.6575C9.18587 12.0949 9.38381 12.0532 10.0297 12.3658Z" fill="white"/>
<path d="M51.8779 15.533C51.6383 15.7935 51.4404 16.0539 51.4404 16.106C51.4404 16.2102 52.0342 16.7415 52.1488 16.7415C52.1905 16.7311 52.4301 16.5435 52.6801 16.3144L53.1489 15.8976L52.3155 15.0642L51.8779 15.533Z" fill="white"/>
<path d="M5.74767 16.5122L5.42472 17.0122L6.32065 17.5956C6.81029 17.9082 7.69581 18.4812 8.27921 18.8562C9.6127 19.7209 9.97733 20.1688 9.97733 20.9814C9.97733 21.3982 9.89398 21.7003 9.66479 22.1587L9.35225 22.7837L9.97733 23.0963C10.3211 23.263 10.6128 23.4088 10.6441 23.4088C10.6649 23.4088 10.8212 23.0963 10.9774 22.7108C11.5713 21.3252 11.3004 20.0855 10.1857 18.95C9.77939 18.5332 6.25815 16.0017 6.10188 16.0121C6.08104 16.0121 5.92477 16.2413 5.74767 16.5122Z" fill="white"/>
<path d="M53.2847 17.0123L52.7951 17.4811L52.993 17.7728C53.3993 18.3458 53.4618 18.3458 53.9827 17.8978C54.2536 17.6686 54.4619 17.4394 54.4515 17.3978C54.4411 17.3561 54.2848 17.1373 54.1077 16.929L53.7848 16.5435L53.2847 17.0123Z" fill="white"/>
<path d="M60.504 18.0021C58.4829 19.273 58.035 19.5231 57.5036 19.6481C56.7952 19.8044 56.4306 19.6377 55.7222 18.8668L55.0971 18.1792L54.5762 18.6167L54.0553 19.0439L54.4408 19.5647C55.5555 21.0649 57.3578 21.2212 59.4414 19.9919C59.8268 19.7731 60.7124 19.2522 61.4104 18.8355L62.6917 18.0958L62.3688 17.5749C62.1917 17.2832 62.0354 17.054 62.025 17.054C62.0146 17.054 61.327 17.4812 60.504 18.0021Z" fill="white"/>
<path d="M2.11199 20.4294C0.236772 21.0753 -0.0549288 21.2107 0.00757841 21.367C0.038832 21.4503 0.122175 21.7108 0.1951 21.9504C0.34095 22.44 0.4868 22.5442 0.788919 22.3775C0.97644 22.2733 1.01811 22.315 1.1848 22.7421C1.38274 23.2734 2.07032 24.3048 2.40369 24.5861C2.78915 24.8986 3.38297 25.1799 3.9247 25.2945C4.99774 25.5237 6.19579 24.9091 6.70627 23.8777C7.22716 22.8046 7.02922 21.5232 6.21663 20.7211C5.6749 20.1793 5.33111 20.0439 4.35183 20.0022C3.5184 19.9606 3.38297 19.9918 2.11199 20.4294ZM4.84147 21.2211C5.0915 21.2211 5.59156 21.7629 5.65406 22.0962C5.75824 22.6275 5.52905 23.3047 5.08108 23.7422C4.75813 24.0652 4.61228 24.1381 4.27891 24.1381C3.66425 24.1381 3.23712 23.7943 2.77873 22.9401C2.21617 21.8775 2.19533 21.7629 2.53912 21.6378C3.15378 21.3982 4.31016 21.1274 4.5081 21.169C4.6227 21.2003 4.76855 21.2211 4.84147 21.2211Z" fill="white"/>
<path d="M65.0257 21.9295C63.2442 24.6694 62.838 24.8257 62.0149 23.0755C61.7128 22.44 61.5982 22.0441 61.567 21.5545L61.5253 20.8982L60.9315 20.9711C60.6085 21.0023 60.3168 21.0544 60.2752 21.0857C60.1189 21.169 60.1918 22.1796 60.4106 22.8046C60.6815 23.6068 61.0878 24.4298 61.3795 24.7424C62.192 25.6383 63.7547 25.5862 64.6298 24.6486C64.8903 24.3673 66.6717 21.8879 66.9947 21.367C67.0364 21.2941 66.8384 21.0961 66.505 20.8773L65.9529 20.5127L65.0257 21.9295Z" fill="white"/>
</svg>
